<svg width="22" height="16" fill="none" xmlns="http://www.w3.org/2000/svg"><path d="M21.267 16H.733A.73.73 0 010 15.273V.728A.73.73 0 01.733.001h20.534A.73.73 0 0122 .728v14.545a.73.73 0 01-.733.727zm-19.8-1.454h19.066V1.456H1.467v13.09z" fill="#2AABE2"/><path d="M21.843.278a.736.736 0 00-1.03-.122L11 7.803 1.187.156a.736.736 0 00-1.03.122A.723.723 0 00.28 1.3l10.267 8c.03.023.063.034.095.051.026.015.05.03.077.041a.727.727 0 00.281.064c.096 0 .19-.025.28-.063.028-.011.052-.027.078-.041.031-.018.066-.029.095-.052l10.267-8a.723.723 0 00.123-1.02z" fill="#2AABE2"/></svg>