<svg width="20" height="26" fill="none" xmlns="http://www.w3.org/2000/svg"><path d="M9.996 26c-.339 0-.674-.069-.983-.201a2.398 2.398 0 01-.81-.57C5.447 22.312-.802 14.793.086 8.307c.204-1.381.73-2.7 1.539-3.86a9.51 9.51 0 013.13-2.833A9.972 9.972 0 019.997 0c2.652.002 5.196 1.015 7.071 2.817 1.876 1.801 2.93 4.244 2.933 6.792 0 5.768-5.735 12.811-8.201 15.575-.223.25-.5.451-.81.59-.312.14-.65.213-.993.217V26zm0-24.224c-1.524.045-3 .516-4.25 1.355a7.66 7.66 0 00-2.549 2.272 7.294 7.294 0 00-1.262 3.111C1.15 14.292 7.016 21.272 9.566 24a.532.532 0 00.402.17.57.57 0 00.411-.179c2.335-2.61 7.753-9.24 7.753-14.408-.01-2.067-.871-4.047-2.396-5.506-1.524-1.459-3.588-2.28-5.74-2.282v-.018z" fill="#2AABE2"/><path d="M9.996 13.152a3.85 3.85 0 01-2.076-.604 3.624 3.624 0 01-1.376-1.61 3.457 3.457 0 01-.212-2.074c.144-.696.5-1.336 1.022-1.838a3.786 3.786 0 011.913-.982 3.88 3.88 0 012.159.204 3.708 3.708 0 011.677 1.322c.41.59.63 1.284.63 1.994 0 .952-.394 1.864-1.095 2.537a3.816 3.816 0 01-2.642 1.051zm0-5.383c-.37 0-.73.106-1.038.303a1.812 1.812 0 00-.688.805 1.729 1.729 0 00-.106 1.037c.072.348.25.668.511.919a1.938 1.938 0 002.036.389c.341-.136.633-.366.838-.661.206-.295.315-.642.315-.997a1.76 1.76 0 00-.547-1.269 1.908 1.908 0 00-1.32-.526z" fill="#2AABE2"/></svg>