<svg width="230" height="230" fill="none" xmlns="http://www.w3.org/2000/svg"><g opacity=".4" clip-path="url(#clip0_137_11937)" fill="#fff"><path d="M223.01 115.002h-31.431V91.048a4.789 4.789 0 00-4.791-4.79h-4.739V24.56l11.693 11.693a7.184 7.184 0 0012.267-5.082 7.185 7.185 0 00-2.105-5.08L179.963 2.147l-.012-.018-.067-.044a7.197 7.197 0 00-2.262-1.502c-.065-.027-.131-.037-.197-.061a7.137 7.137 0 00-2.486-.484l-.072-.013-.066.011c-.859.01-1.71.176-2.51.49-.058.021-.117.03-.175.053a7.199 7.199 0 00-2.301 1.529l-.033.021-.012.018-23.941 23.942a7.185 7.185 0 1010.162 10.163l11.686-11.687v61.692h-4.79a4.79 4.79 0 00-4.791 4.79v23.954H114.98V19.188A19.221 19.221 0 0095.817.026H43.12a19.22 19.22 0 00-19.163 19.162v95.814H7.047a7.034 7.034 0 00-6.995 6.994v22.708c3.134-.66 6.33-.982 9.533-.958a41.202 41.202 0 0122.133 5.94 22.44 22.44 0 0012.983 3.641 22.439 22.439 0 0012.983-3.641 41.208 41.208 0 0122.132-5.94 41.552 41.552 0 0122.181 5.94 22.225 22.225 0 0012.983 3.641 22.166 22.166 0 0012.935-3.641 41.4 41.4 0 0122.181-5.94 41.206 41.206 0 0122.132 5.94 25.051 25.051 0 0026.014 0 41.21 41.21 0 0122.133-5.94 45.609 45.609 0 019.629.958v-22.708a7.032 7.032 0 00-6.994-6.994zm-2.639 86.229a41.126 41.126 0 00-22.157 5.961 25.113 25.113 0 01-25.979 0 41.134 41.134 0 00-22.162-5.961 41.092 41.092 0 00-22.147 5.961 22.489 22.489 0 01-12.973 3.621 22.5 22.5 0 01-12.978-3.621 41.128 41.128 0 00-22.157-5.961 41.127 41.127 0 00-22.152 5.961 22.487 22.487 0 01-12.973 3.621 22.473 22.473 0 01-12.964-3.621 41.13 41.13 0 00-22.148-5.961 9.581 9.581 0 000 19.163 22.472 22.472 0 0112.969 3.621 41.123 41.123 0 0022.143 5.96 41.118 41.118 0 0022.152-5.96 22.479 22.479 0 0112.973-3.621 22.494 22.494 0 0112.978 3.621 41.125 41.125 0 0022.157 5.96 41.157 41.157 0 0022.152-5.96 25.072 25.072 0 0125.96 0 44.173 44.173 0 0044.319 0 22.52 22.52 0 0112.987-3.621 9.58 9.58 0 100-19.163zm0-38.325a41.134 41.134 0 00-22.157 5.96 25.111 25.111 0 01-25.979 0 41.142 41.142 0 00-22.162-5.96 41.1 41.1 0 00-22.147 5.96 22.482 22.482 0 01-12.973 3.622 22.493 22.493 0 01-12.978-3.622 41.135 41.135 0 00-22.157-5.96 41.126 41.126 0 00-22.152 5.96 22.48 22.48 0 01-12.973 3.622 22.466 22.466 0 01-12.964-3.622 41.139 41.139 0 00-22.148-5.96 9.581 9.581 0 000 19.163 22.472 22.472 0 0112.969 3.621 41.123 41.123 0 0022.143 5.96 41.118 41.118 0 0022.152-5.96 22.479 22.479 0 0112.973-3.621 22.494 22.494 0 0112.978 3.621 41.125 41.125 0 0022.157 5.96 41.157 41.157 0 0022.152-5.96 25.072 25.072 0 0125.96 0 44.173 44.173 0 0044.319 0 22.52 22.52 0 0112.987-3.621 9.58 9.58 0 100-19.163z"/></g><defs><clipPath id="clip0_137_11937"><path fill="#fff" d="M0 0h230v230H0z"/></clipPath></defs></svg>