<svg width="184" height="184" fill="none" xmlns="http://www.w3.org/2000/svg"><path d="M152.276 101.517h-19.035v6.345h19.035v-6.345zm0-13.647a47.776 47.776 0 01-19.035 0v7.303h19.035V87.87zM41.242 44.414a3.172 3.172 0 100-6.345 3.172 3.172 0 000 6.345zm85.654 82.483h31.724v-12.69h-31.724v12.69zm44.415-95.173h-57.104v19.034h57.104V31.724z" fill="#fff" fill-opacity=".4"/><path d="M142.759 82.483C165.499 82.483 184 63.98 184 41.24S165.499 0 142.759 0s-41.242 18.502-41.242 41.241c0 22.74 18.502 41.242 41.242 41.242zm15.862-12.69h-31.724v-6.345h31.724v6.345zM107.862 25.38h69.793v31.724h-69.793V25.38zm44.414 107.861h-19.035v31.724H50.759v-31.724H31.724v31.724H0v19.034h184v-19.034h-31.724v-31.724zM25.38 126.897h31.723v-12.69H25.38v12.69zm25.378-25.38H31.724v6.345h19.034v-6.345zm0-13.647a47.78 47.78 0 01-19.034 0v7.303h19.034V87.87zM.164 44.415A40.9 40.9 0 004.092 59.03l5.345-3.086 3.172 5.494-5.364 3.1a41.542 41.542 0 0010.707 10.707l3.096-5.365 5.495 3.172-3.087 5.346a40.822 40.822 0 0014.612 3.927V76.14h6.345v6.183a40.865 40.865 0 0014.612-3.927l-3.087-5.346 5.495-3.172 3.096 5.364a41.545 41.545 0 0010.707-10.707l-5.365-3.099 3.173-5.495 5.345 3.087a40.819 40.819 0 003.928-14.615H76.14v-6.345h6.183a40.902 40.902 0 00-3.927-14.615l-5.346 3.086-3.172-5.494 5.364-3.1A41.545 41.545 0 0064.535 7.238l-3.096 5.364-5.494-3.172 3.086-5.346A40.96 40.96 0 0044.416.163v6.183h-6.345V.163A40.867 40.867 0 0023.46 4.09l3.087 5.346-5.495 3.172-3.102-5.367A41.63 41.63 0 007.245 17.948l5.364 3.099-3.172 5.495-5.345-3.087A40.835 40.835 0 00.164 38.07h6.183v6.345H.164zm31.734-1.485a9.545 9.545 0 01-.172-1.687c0-5.248 4.27-9.518 9.518-9.518 5.247 0 9.517 4.27 9.517 9.518 0 5.247-4.27 9.517-9.517 9.517-2.367 0-4.508-.901-6.174-2.335L17.435 58.5l-3.147-5.508 17.61-10.063z" fill="#fff" fill-opacity=".4"/></svg>