<svg width="179" height="179" fill="none" xmlns="http://www.w3.org/2000/svg"><path d="M64.81 6.172h6.173V0H33.948v6.172h30.863zm-3.086 6.173H43.207v30.862h18.517V12.345zM90.36 148.138H17.657l-4.114 12.345h80.933l-4.114-12.345zm2.226-15.43V61.725H18.517v80.241h74.07v-9.258zm-37.034 0a3.087 3.087 0 01-3.086 3.086h-24.69a3.085 3.085 0 01-3.086-3.086v-12.345a3.087 3.087 0 013.086-3.086h24.69a3.089 3.089 0 013.086 3.086v12.345zm12.345 3.086h-6.173v-6.173h6.173v6.173zm18.517 0H74.069v-6.173h12.345v6.173zm0-12.345h-24.69v-6.172h24.69v6.172zm-3.99-22.508a3.09 3.09 0 01-2.183.905H33.949a3.09 3.09 0 01-2.182-.905l-6.172-6.172 4.364-4.364 5.268 5.268h43.738l5.268-5.268 4.364 4.364-6.173 6.172zm0-12.345a3.086 3.086 0 01-2.183.905H33.949a3.087 3.087 0 01-2.182-.905l-6.172-6.172 4.364-4.364 5.268 5.268h43.738l5.268-5.268 4.364 4.364-6.173 6.172zm0-12.344a3.086 3.086 0 01-2.183.904H33.949a3.086 3.086 0 01-2.182-.904l-6.172-6.173 4.364-4.364 5.268 5.268h43.738l5.268-5.268 4.364 4.364-6.173 6.173zM70.983 49.379H33.948v6.172h37.035v-6.172z" fill="#fff" fill-opacity=".4"/><path d="M37.035 123.448h-6.173v6.173h6.173v-6.173zm12.345 0h-6.173v6.173h6.172v-6.173zm55.551-3.085V74.07h-6.173v55.552h6.173v-9.259zM9.259 141.966h3.086V61.725H9.259A9.259 9.259 0 000 70.983v61.725a9.257 9.257 0 009.259 9.258zm160.482-.001h-18.517v24.69h18.517v-24.69zM179 129.621h-37.035v6.173H179v-6.173zm-30.862 43.206h-6.173v6.172H179v-6.172h-30.862zM9.259 166.655H0V179h108.017v-12.345H9.259zm101.844-49.379h6.173V86.414h-6.173v30.862zm40.121 3.086v3.087h18.517v-15.431a15.447 15.447 0 00-15.431-15.431h-30.862v18.517h18.518c2.455 0 4.81.975 6.546 2.712a9.254 9.254 0 012.712 6.546z" fill="#fff" fill-opacity=".4"/></svg>