<svg width="158" height="158" viewBox="0 0 158 158" fill="none" xmlns="http://www.w3.org/2000/svg">
<path d="M46.0833 70.9683V87.0317C46.0833 88.7777 45.3897 90.4522 44.1551 91.6868C42.9205 92.9214 41.246 93.615 39.5 93.615C37.754 93.615 36.0795 92.9214 34.8449 91.6868C33.6103 90.4522 32.9167 88.7777 32.9167 87.0317V70.9683C32.9167 69.2223 33.6103 67.5478 34.8449 66.3132C36.0795 65.0786 37.754 64.385 39.5 64.385C41.246 64.385 42.9205 65.0786 44.1551 66.3132C45.3897 67.5478 46.0833 69.2223 46.0833 70.9683ZM65.8333 41.7383C64.0873 41.7383 62.4128 42.4319 61.1782 43.6665C59.9436 44.9012 59.25 46.5757 59.25 48.3217V109.678C59.25 111.424 59.9436 113.099 61.1782 114.333C62.4128 115.568 64.0873 116.262 65.8333 116.262C67.5793 116.262 69.2538 115.568 70.4884 114.333C71.7231 113.099 72.4167 111.424 72.4167 109.678V48.3217C72.4167 46.5757 71.7231 44.9012 70.4884 43.6665C69.2538 42.4319 67.5793 41.7383 65.8333 41.7383ZM92.1667 61.4883C90.4207 61.4883 88.7462 62.1819 87.5115 63.4165C86.2769 64.6512 85.5833 66.3257 85.5833 68.0717V90.1917C85.5833 91.9377 86.2769 93.6122 87.5115 94.8468C88.7462 96.0814 90.4207 96.775 92.1667 96.775C93.9127 96.775 95.5872 96.0814 96.8218 94.8468C98.0564 93.6122 98.75 91.9377 98.75 90.1917V67.94C98.75 66.194 98.0564 64.5195 96.8218 63.2849C95.5872 62.0503 93.9127 61.3567 92.1667 61.3567V61.4883ZM118.5 54.905C116.754 54.905 115.079 55.5986 113.845 56.8332C112.61 58.0678 111.917 59.7423 111.917 61.4883V96.775C111.917 98.521 112.61 100.196 113.845 101.43C115.079 102.665 116.754 103.358 118.5 103.358C120.246 103.358 121.921 102.665 123.155 101.43C124.39 100.196 125.083 98.521 125.083 96.775V61.3567C125.083 59.6107 124.39 57.9362 123.155 56.7015C121.921 55.4669 120.246 54.7733 118.5 54.7733V54.905ZM158 26.3333V131.667C158 138.651 155.226 145.349 150.287 150.287C145.349 155.226 138.651 158 131.667 158H26.3333C19.3493 158 12.6513 155.226 7.71285 150.287C2.7744 145.349 0 138.651 0 131.667V26.3333C0 19.3493 2.7744 12.6513 7.71285 7.71285C12.6513 2.7744 19.3493 0 26.3333 0H131.667C138.651 0 145.349 2.7744 150.287 7.71285C155.226 12.6513 158 19.3493 158 26.3333ZM144.833 52.6667C144.833 42.1906 140.672 32.1436 133.264 24.7359C125.856 17.3283 115.809 13.1667 105.333 13.1667H26.3333C22.8413 13.1667 19.4923 14.5539 17.0231 17.0231C14.5539 19.4923 13.1667 22.8413 13.1667 26.3333V131.667C13.1667 135.159 14.5539 138.508 17.0231 140.977C19.4923 143.446 22.8413 144.833 26.3333 144.833H65.8333C86.7854 144.833 106.879 136.51 121.695 121.695C136.51 106.879 144.833 86.7854 144.833 65.8333V52.6667Z" fill="white" fill-opacity="0.4"/>
</svg>
