<svg width="178" height="178" viewBox="0 0 178 178" fill="none" xmlns="http://www.w3.org/2000/svg">
<path d="M172.57 45.6995H155.706L158.142 6.16398C158.517 0.355454 151.022 -1.89301 148.024 2.97866L110.924 63.1251C108.676 66.8725 111.299 71.5568 115.608 71.5568H132.472L130.223 111.092C129.849 116.901 137.344 119.149 140.342 114.278L177.066 54.1312C179.502 50.3838 176.879 45.6995 172.57 45.6995Z" fill="white" fill-opacity="0.4"/>
<path d="M135.845 129.454C130.786 129.454 126.101 127.393 122.541 123.832C119.169 120.272 117.295 115.401 117.67 110.342L119.169 84.1096H115.608C109.05 84.1096 103.055 80.5496 99.8693 74.9284C96.6839 69.3073 96.8713 62.1871 100.244 56.7533L105.303 48.3216H28.6679C12.9287 48.3216 0 61.2503 0 76.9895V172.549C0 175.36 2.43584 177.796 5.24642 177.796H28.2932C30.1669 177.796 32.0406 176.671 32.9775 174.798L38.5986 162.806H126.101L131.722 174.798C132.472 176.671 134.346 177.796 136.407 177.796H159.454C162.264 177.796 164.7 175.36 164.7 172.549V98.1625L150.834 120.647C147.836 126.081 142.028 129.454 135.845 129.454ZM82.4437 134.138H37.0996C33.727 134.138 30.9164 131.327 30.9164 127.955C30.9164 124.582 33.727 121.771 37.0996 121.771H82.4437C85.8164 121.771 88.6269 124.582 88.6269 127.955C88.6269 131.327 85.8164 134.138 82.4437 134.138ZM82.4437 105.095H37.0996C33.727 105.095 30.9164 102.285 30.9164 98.912C30.9164 95.5393 33.727 92.7288 37.0996 92.7288H82.4437C85.8164 92.7288 88.6269 95.5393 88.6269 98.912C88.6269 102.285 85.8164 105.095 82.4437 105.095Z" fill="white" fill-opacity="0.4"/>
</svg>
