<svg width="21" height="21" fill="none" xmlns="http://www.w3.org/2000/svg"><path d="M6.435 14.565c3.179 3.177 7.497 6.435 10.357 6.434.47.01.935-.098 1.352-.316 1.171-.638 2.072-1.863 2.677-3.641.222-.651.407-1.596-.542-2.285l-3.257-2.364c-.982-.712-1.857.26-2.495.971-.734.816-1.007 1.005-1.215.839-1.727-1.379-5.137-4.788-6.515-6.515-.166-.208.022-.48.838-1.215.71-.638 1.684-1.513.971-2.495L6.242.721C5.554-.229 4.61-.043 3.958.179 2.18.784.954 1.685.316 2.856c-1.456 2.67 2.387 7.976 6.12 11.709zM1.34 3.415c.494-.906 1.501-1.623 2.994-2.132a1.81 1.81 0 01.555-.12.445.445 0 01.409.243l2.364 3.257.015.024c-.003.183-.535.661-.822.919-.745.67-1.87 1.681-.97 2.81 1.417 1.775 4.924 5.281 6.7 6.699 1.128.9 2.14-.226 2.81-.97.257-.287.737-.821.915-.823.01.004.018.01.026.016l3.258 2.364c.202.146.362.262.123.963-.508 1.493-1.226 2.5-2.132 2.994-1.653.9-5.993-1.589-10.324-5.92C2.929 9.41.44 5.066 1.34 3.415z" fill="#2AABE2"/></svg>